<svg xmlns="http://www.w3.org/2000/svg" width="30.106" height="30.107" viewBox="0 0 30.106 30.107"><defs><style>.a{fill:#fff;}</style></defs><path class="a" d="M14.349,2.509h-1.38a3.457,3.457,0,0,0-6.649,0H4.941A.948.948,0,0,0,4,3.45V5.331a2.206,2.206,0,0,0,2.2,2.2h6.9a2.206,2.206,0,0,0,2.2-2.2V3.45A.948.948,0,0,0,14.349,2.509Z" transform="translate(1.018)"/><path class="a" d="M17.876,3h-.314V4.568a3.448,3.448,0,0,1-3.45,3.45h-6.9a3.448,3.448,0,0,1-3.45-3.45V3H3.45A3.448,3.448,0,0,0,0,6.45V22.13a3.448,3.448,0,0,0,3.45,3.45h9.258l.276-1.543a3.493,3.493,0,0,1,.953-1.844l1-1H4.7a.941.941,0,0,1,0-1.882H16.622a.427.427,0,0,1,.176.025h.013l4.516-4.516V6.45A3.448,3.448,0,0,0,17.876,3ZM16.622,17.113H4.7a.941.941,0,0,1,0-1.882H16.622a.941.941,0,0,1,0,1.882Zm0-4.077H4.7a.941.941,0,1,1,0-1.882H16.622a.941.941,0,0,1,0,1.882Z" transform="translate(0 0.763)"/><path class="a" d="M12.718,27.136a.941.941,0,0,1-.926-1.105l.665-3.77a.944.944,0,0,1,.261-.5l9.314-9.313a1.914,1.914,0,0,1,2.883-.222l1.552,1.552a2.2,2.2,0,0,1,0,3.1L17.152,26.2a.927.927,0,0,1-.5.261l-3.77.665a.9.9,0,0,1-.163.015Zm3.77-1.606H16.5Z" transform="translate(2.997 2.971)"/></svg>