<svg xmlns="http://www.w3.org/2000/svg" xmlns:xlink="http://www.w3.org/1999/xlink" width="87.153" height="114.416" viewBox="0 0 87.153 114.416"><defs><style>.a{fill:url(#a);}</style><linearGradient id="a" x1="0.5" x2="0.5" y2="1" gradientUnits="objectBoundingBox"><stop offset="0" stop-color="#5aa5e6"/><stop offset="1" stop-color="#2d5373"/></linearGradient></defs><g transform="translate(-61)"><g transform="translate(61)"><path class="a" d="M122.6,45.32C130.186,38.4,140.445,29.05,141.38,6.7h6.773V0H61V6.7h6.773C68.708,29.05,78.967,38.4,86.553,45.32,91.641,49.96,94.52,52.8,94.52,57.208S91.641,64.456,86.553,69.1c-7.586,6.916-17.844,16.27-18.779,38.616H61v6.7h87.153v-6.7H141.38c-.935-22.346-11.194-31.7-18.779-38.616-5.089-4.639-7.968-7.479-7.968-11.888S117.512,49.96,122.6,45.32ZM101.224,82.334a16.948,16.948,0,0,0-3.056.937l-20.532,8.5c3.353-8.525,8.753-13.451,13.433-17.718,5.222-4.761,10.155-9.259,10.155-16.842Zm16.859-8.284c4.68,4.266,10.08,9.192,13.433,17.718l-20.532-8.5a16.948,16.948,0,0,0-3.056-.937V57.208C107.928,64.791,112.861,69.289,118.084,74.05Zm-40.565-51.7A49.67,49.67,0,0,1,74.485,6.7h60.182a49.663,49.663,0,0,1-3.033,15.643Z" transform="translate(-61)"/></g></g></svg>